<svg width="24" height="24" viewBox="0 0 24 24" fill="none" xmlns="http://www.w3.org/2000/svg">
<g clip-path="url(#clip0)">
<path d="M19.1745 6.09153C19.7695 3.29223 18.3372 0.615968 15.9753 0.113929C13.6134 -0.388111 11.2163 1.47419 10.6213 4.27349C10.0263 7.07279 11.4587 9.74905 13.8206 10.2511C16.1825 10.7531 18.5795 8.89084 19.1745 6.09153Z" fill="#A3FECC"/>
<path d="M6.29849 9.51318V10.5359C4.73488 10.876 2.81307 11.7349 2.52289 12.9591C1.61477 16.7885 1.85897 22.7229 1.85897 22.8078V22.8946C1.85897 23.3182 2.28841 23.3182 2.71138 23.3182H13.1378C13.5608 23.3182 13.9896 23.3182 13.9896 22.8946V12.9591C13.9896 11.8456 13.0744 10.7322 10.9893 10.4757V9.51318H6.29849Z" fill="#20E2D7"/>
<path d="M17.0192 8.61685V10.5361C18.5829 10.8761 20.5047 11.735 20.7948 12.9592C21.7023 16.7892 21.4588 22.7237 21.4588 22.8079V22.8947C21.4588 23.3183 21.0293 23.3183 20.6064 23.3183H10.1799C9.75692 23.3183 9.32812 23.3183 9.32812 22.8947V12.9592C9.32812 11.8458 10.2434 10.7323 12.3284 10.4758V9.51331L17.0192 8.61685Z" fill="#A3FECC"/>
<path d="M9.49286 10.2503C11.8548 9.74829 13.2871 7.07202 12.6921 4.27272C12.0971 1.47342 9.70005 -0.388876 7.33814 0.113163C4.97623 0.615203 3.54387 3.29147 4.13888 6.09077C4.73389 8.89007 7.13095 10.7524 9.49286 10.2503Z" fill="#20E2D7"/>
<path d="M12.3667 10.4205C11.5182 10.6673 10.1379 10.7742 8.54639 10.1731C6.86684 9.53832 5.32201 8.91391 4.71962 8.70405C4.17164 8.51297 2.7732 8.68267 2.46164 9.25332C2.15009 9.82397 1.97391 10.8629 2.7447 11.6234C3.5155 12.3838 7.57545 13.8846 8.72322 14.5595C9.32431 14.9132 9.28934 17.0358 9.32432 18.7691C9.37808 21.3878 14.1065 9.91465 12.3667 10.4205Z" fill="#A3FECC"/>
<path d="M7.92327 16.3765C8.7854 16.5695 10.2577 16.9018 11.809 16.2023C13.4458 15.4639 14.8611 14.4327 15.4486 14.1859C15.9836 13.9611 17.1139 13.7435 17.7363 14.5933C18.1211 15.118 18.3238 16.1699 17.6023 16.9763C16.88 17.7834 14.0417 19.5148 11.9418 20.0219C10.1612 20.452 7.42906 20.4106 6.55722 19.5083C5.19634 18.0995 6.73923 16.111 7.92327 16.3765ZM16.187 11.1636C16.187 9.89925 17.3037 9.21007 18.6088 8.70419C19.1497 8.49433 20.5552 8.68282 20.8668 9.25346C21.1784 9.82411 21.3545 10.8631 20.5837 11.6235C19.813 12.3839 16.187 13.1094 16.187 11.1636Z" fill="#20E2D7"/>
</g>
<defs>
<clipPath id="clip0">
<rect width="23.3182" height="23.3182" fill="white"/>
</clipPath>
</defs>
</svg>
